HIERARCHY
ROOT Hip
{
    OFFSET 0.0 0.0 0.0
    CHANNELS 6 Xposition Yposition Zposition Zrotation Xrotation Yrotation
    JOINT RightHip
    {
        OFFSET -106.99298858642578 0.0 0.0
        CHANNELS 3 Zrotation Xrotation Yrotation
        JOINT RightKnee
        {
            OFFSET 0.0 0.0 -388.80108642578125
            CHANNELS 3 Zrotation Xrotation Yrotation
            JOINT RightAnkle
            {
                OFFSET 0.0 0.0 -365.5960693359375
                CHANNELS 3 Zrotation Xrotation Yrotation
                End Site
                {
                    OFFSET 0.0 -146.23843383789062 0.0
                }
            }
        }
    }
    JOINT LeftHip
    {
        OFFSET 106.99298858642578 0.0 0.0
        CHANNELS 3 Zrotation Xrotation Yrotation
        JOINT LeftKnee
        {
            OFFSET 0.0 0.0 -388.80108642578125
            CHANNELS 3 Zrotation Xrotation Yrotation
            JOINT LeftAnkle
            {
                OFFSET 0.0 0.0 -365.5960693359375
                CHANNELS 3 Zrotation Xrotation Yrotation
                End Site
                {
                    OFFSET 0.0 -146.23843383789062 0.0
                }
            }
        }
    }
    JOINT Spine
    {
        OFFSET 0.0 0.0 233.8563690185547
        CHANNELS 3 Zrotation Xrotation Yrotation
        JOINT Thorax
        {
            OFFSET 0.0 0.0 233.8563690185547
            CHANNELS 3 Zrotation Xrotation Yrotation
            JOINT Neck
            {
                OFFSET 0.0 0.0 57.029170989990234
                CHANNELS 3 Zrotation Xrotation Yrotation
                End Site
                {
                    OFFSET 0.0 0.0 22.81166648864746
                }
            }
            JOINT LeftShoulder
            {
                OFFSET 160.2506561279297 0.0 0.0
                CHANNELS 3 Zrotation Xrotation Yrotation
                JOINT LeftElbow
                {
                    OFFSET 232.46737670898438 0.0 0.0
                    CHANNELS 3 Zrotation Xrotation Yrotation
                    JOINT LeftWrist
                    {
                        OFFSET 223.72117614746094 0.0 0.0
                        CHANNELS 3 Zrotation Xrotation Yrotation
                        End Site
                        {
                            OFFSET 89.48846435546875 0.0 0.0
                        }
                    }
                }
            }
            JOINT RightShoulder
            {
                OFFSET -160.2506561279297 0.0 0.0
                CHANNELS 3 Zrotation Xrotation Yrotation
                JOINT RightElbow
                {
                    OFFSET -232.46737670898438 0.0 0.0
                    CHANNELS 3 Zrotation Xrotation Yrotation
                    JOINT RightWrist
                    {
                        OFFSET -223.72117614746094 0.0 0.0
                        CHANNELS 3 Zrotation Xrotation Yrotation
                        End Site
                        {
                            OFFSET -89.48846435546875 0.0 0.0
                        }
                    }
                }
            }
        }
    }
}
MOTION
Frames: 7
Frame Time: 0.03333333333333333
-0.04146575927734375 0.6625652313232422 0.12672686576843262 3.178754376367516 40.7138680006815 -17.854877798261448 42.87550690910325 -67.18440394415838 50.00437002752702 3.8330100545882977 38.54141053802091 -6.0022232661357915 0.0 0.0 -3.727212517340059e-17 17.458447396038707 -46.34641482529031 12.873018773360645 -16.05907098949078 55.8681087423167 28.93015017417231 0.0 0.0 2.3854160110976384e-15 -3.264400216321643e-10 -3.8744823748715206e-08 -1.8060055623586952e-06 -13.44333748295694 -6.453207964123362e-06 7.727919450080323e-07 -106.67085162533549 15.693928473708374 39.349452037117615 -65.40457457398742 7.300209115250069 47.45795570665397 -8.772897330694429 -6.236561648126096e-06 -4.963368421400753e-06 6.3611093629270335e-15 -6.3611093629270335e-15 6.3611093629270335e-15 -9.977204252532042 -52.88554888556564 -51.69101448355475 33.116622091446914 -2.3995320343411425e-06 -2.0178962086127123e-06 0.0 0.0 -5.963540027744095e-15
-0.048053741455078125 0.7071706056594849 0.13788926601409912 3.215246046935596 43.32220987776547 -17.600279491659776 36.68117655642895 -64.94731839215302 40.54369644021081 0.7478542311374116 33.82488448730438 1.9416117651709561 1.034509288605506e-33 7.951386703658792e-16 -1.4908850069360235e-16 16.751687211839474 -45.90877559568985 13.315312508635985 -16.207790435854264 59.26675596012444 27.435101184596487 8.827812596100317e-32 6.3611093629270335e-15 -1.5902773407317584e-15 1.2069275033730902e-33 9.93923337957349e-17 -1.3914926731402886e-15 -11.099420829487183 -1.6894413514096663e-06 -4.987088879690984e-07 -50.11187289208849 34.80498116604858 12.080686963734857 -51.7061162514344 -6.1394664023180505 48.576486712330805 -10.391341074130803 4.809687803464941e-07 7.5950956612975235e-06 0.0 0.0 6.3611093629270335e-15 -18.000677361555297 -46.781482881563036 -51.46423310234883 34.90588183793226 -7.81305952233107e-07 2.0681544674521352e-06 -7.951386703658792e-16 1.9878466759146972e-16 9.14409470920761e-15
-0.05835723876953125 0.7288515567779541 0.14061784744262695 3.073913061680981 43.93858522317796 -17.378953768738068 35.69165979803705 -64.78492766495512 38.09185990230223 -0.2354773369615998 33.33172980395912 5.274878427329927 0.0 0.0 -4.2241741863187335e-16 15.670418350630474 -44.513935727665086 12.90663580062716 -15.08580057453126 58.96092655823533 26.156511192317023 -2.1897113275483209e-32 6.311413196029166e-15 3.975693351829396e-16 7.951386703658794e-16 9.939233379573492e-17 -9.939233379573492e-16 -11.067050935940982 6.35723612648955e-06 5.457833316703643e-07 117.7012000271657 -32.45193910183571 -17.84300323253587 -49.843221363182515 -6.615404456154108 50.338172790758954 -11.832860923749651 -6.032483182563099e-06 -2.636566816430879e-06 -3.1805546814635168e-15 3.180554681463516e-15 6.361109362927033e-15 -12.678323793832165 -37.87613857109551 -43.40853929167359 35.46534666018925 2.546575272660512e-06 1.991506359856783e-06 -7.951386703658792e-16 2.069018577211012e-33 -2.981770013872047e-16
-0.06816482543945312 0.7113891839981079 0.14273881912231445 2.740299778395203 43.64438309484248 -16.759811162293563 34.353659152369154 -64.97895911080577 35.714113434984014 -0.8042155649040823 31.466967896899277 7.424563903245542 3.975693351829396e-16 -1.1638229496811941e-33 -3.3544912656060527e-16 13.639802576168172 -41.838644427660775 11.367131052084643 -13.119775162707384 56.25140958495798 23.652945487021785 4.3794226550966417e-32 6.311413196029168e-15 -7.951386703658794e-16 3.9368185892058587e-08 -3.194038333585053e-06 -2.6828559084492025e-07 -11.471554692227162 1.3439830306067685e-06 -6.10809354700015e-07 64.1047513660669 -4.643541108124925 -37.287005429057416 -41.85887950228291 -10.213633669933428 52.80631738111482 -15.158574603114099 -2.9151475159537057e-06 1.5239486977903134e-06 -6.3611093629270335e-15 -3.531125038440127e-31 6.3611093629270335e-15 -13.275184674981396 -31.216264845687025 -38.70351518037441 39.74353726776636 8.001138648473212e-07 -3.881730329078834e-06 0.0 0.0 2.8326815131784447e-15
-0.0805816650390625 0.7175482511520386 0.15164542198181152 2.2541123325854895 42.268388360660275 -15.786277728099359 29.843419421704894 -64.79339583027124 31.054074400375416 -0.8085349715329534 31.39886942291662 8.003765494737301 5.7248235372049485e-36 6.212020862233431e-18 -1.0560435465796834e-16 11.890243831208439 -41.3351487523145 9.609600443421451 -11.581229639845546 54.7588781063205 20.69875384688781 0.0 -2.4848083448933725e-17 0.0 -1.6162057064943628e-06 6.21251413057924e-06 -9.300984700062666e-08 -9.801182552258304 -5.361572494766569e-06 1.3037193485937455e-06 22.961458095768 24.098510132061385 -30.746680942590043 -32.057852860185726 -10.885031231458225 56.13133599971151 -24.14939000188836 -5.824762449950403e-06 -8.718720474336417e-06 6.361109362927033e-15 -8.827812596100317e-32 -1.5902773407317582e-15 -16.005899052750163 -33.32726740454308 -39.389786810702354 49.81601751045262 -2.6739795373384374e-06 -5.720195547613975e-06 1.1034765745125397e-32 -7.951386703658792e-16 1.5902773407317584e-15
-0.10700225830078125 0.7102211117744446 0.14465785026550293 1.5015690536376742 36.32011675659753 -15.259139330234952 22.17177604161588 -60.34252351852251 24.091898711754634 -0.6161835827136499 30.828048644811002 7.784456101291723 -3.348667496047709e-17 -7.951386703658792e-16 2.1067789698640011e-16 8.8578682373552 -35.62485677784137 7.475976374220751 -9.569970891646546 51.61432085776801 19.67598015797377 0.0 0.0 3.975693351829396e-16 6.033441353715297e-07 7.81818134048342e-08 1.9884810112405608e-07 -10.253196682104564 5.819041384192925e-06 1.2675391860330286e-06 -112.1479561672081 6.160756456942473 43.101172040858195 -27.543699205795154 -9.847591494534726 53.94427792445464 -33.10731375712151 -5.002042079972879e-06 4.081454719148425e-06 0.0 0.0 -4.770832022195275e-15 -12.43734781964042 -30.479191573497722 -34.261092477792495 49.02050993987423 -4.3762808719664746e-07 5.057838244352147e-06 3.1805546814635176e-15 -2.3854160110976384e-15 -7.951386703658794e-16
-0.12234115600585938 0.7136179208755493 0.12253284454345703 2.0449488791516868 34.438777579488935 -15.155265309095022 16.989374550166172 -58.49898056228582 19.929752379025768 0.1360152685256223 32.2768695280356 6.323886794228402 -2.4848083448933725e-17 -6.7350865143587625e-37 3.1060104311167156e-18 7.597435623698203 -36.44031670837105 6.631834684064846 -7.232621203647871 50.02868168400527 17.93329649423106 0.0 0.0 1.9878466759146985e-16 -2.5241567961699804e-07 -1.8898575805290895e-08 8.088503203198813e-07 -10.773189146069896 -5.729653277176645e-06 3.981030326968155e-07 154.30013492702926 -44.018429733452045 2.5261097100637695 -25.842821439873113 -20.003863000110698 45.13269303130916 -43.27438562830142 -1.8996995080166649e-06 -2.881367120638838e-06 -1.3241718894150476e-31 6.3611093629270335e-15 2.3854160110976376e-15 -4.495677989238165 -34.89759532976945 -29.818449496987046 54.30812353040945 2.6655896311114315e-06 1.2548562818199139e-06 -6.3611093629270335e-15 -1.3241718894150476e-31 2.3854160110976376e-15
